<?xml version="1.0" encoding="UTF-8" standalone="no"?>
<!-- Created with Inkscape (http://www.inkscape.org/) -->

<svg
   version="1.1"
   id="svg2"
   width="2666.6667"
   height="2666.6667"
   viewBox="0 0 2666.6667 2666.6667"
   sodipodi:docname="Vector file.ai"
   xmlns:inkscape="http://www.inkscape.org/namespaces/inkscape"
   xmlns:sodipodi="http://sodipodi.sourceforge.net/DTD/sodipodi-0.dtd"
   xmlns="http://www.w3.org/2000/svg"
   xmlns:svg="http://www.w3.org/2000/svg">
  <defs
     id="defs6">
    <clipPath
       clipPathUnits="userSpaceOnUse"
       id="clipPath18">
      <path
         d="M 0,2000 H 2000 V 0 H 0 Z"
         id="path16" />
    </clipPath>
  </defs>
  <sodipodi:namedview
     id="namedview4"
     pagecolor="#ffffff"
     bordercolor="#000000"
     borderopacity="0.25"
     inkscape:showpageshadow="2"
     inkscape:pageopacity="0.0"
     inkscape:pagecheckerboard="0"
     inkscape:deskcolor="#d1d1d1" />
  <g
     id="g8"
     inkscape:groupmode="layer"
     inkscape:label="Vector file"
     transform="matrix(1.3333333,0,0,-1.3333333,0,2666.6667)">
    <path
       d="m 436.225,788.032 h 21.417 V 665.428 h -21.417 z"
       style="fill:#000000;fill-opacity:1;fill-rule:nonzero;stroke:none"
       id="path10" />
    <g
       id="g12">
      <g
         id="g14"
         clip-path="url(#clipPath18)">
        <g
           id="g20"
           transform="translate(581.0898,665.4287)">
          <path
             d="m 0,0 -68.638,53.966 c -1.914,1.46 -3.12,2.893 -3.626,4.301 -0.506,1.405 -0.759,2.952 -0.759,4.636 0,1.911 0.337,3.599 1.011,5.06 0.676,1.46 2.136,3.036 4.386,4.724 l 64.927,49.917 H 30.187 L -50.087,62.736 32.717,0 Z M -101.018,122.604 H -79.6 V 0 h -21.418 z"
             style="fill:#000000;fill-opacity:1;fill-rule:nonzero;stroke:none"
             id="path22" />
        </g>
        <g
           id="g24"
           transform="translate(755.4673,665.4287)">
          <path
             d="m 0,0 -18.382,30.862 h -58.014 l 10.119,17.37 h 37.608 L -55.989,94.104 -111.642,0 h -24.454 l 70.494,117.377 c 1.235,2.135 2.698,3.819 4.385,5.06 1.686,1.234 3.71,1.854 6.07,1.854 2.362,0 4.356,-0.62 5.988,-1.854 1.628,-1.241 3.061,-2.925 4.3,-5.06 L 25.803,0 Z"
             style="fill:#000000;fill-opacity:1;fill-rule:nonzero;stroke:none"
             id="path26" />
        </g>
        <g
           id="g28"
           transform="translate(908.2603,665.4287)">
          <path
             d="m 0,0 -31.031,34.066 h -45.871 v 18.887 h 51.099 c 7.758,0 13.602,2.109 17.539,6.326 3.934,4.216 5.903,10.313 5.903,18.298 0,7.981 -2.053,13.912 -6.156,17.792 -4.106,3.878 -9.866,5.819 -17.286,5.819 H -92.586 V 0 h -21.249 v 122.604 h 88.032 c 6.97,0 13.21,-1.041 18.72,-3.119 5.507,-2.082 10.174,-5.059 13.997,-8.939 3.821,-3.878 6.746,-8.573 8.769,-14.082 2.025,-5.51 3.036,-11.693 3.036,-18.551 0,-10.231 -2.221,-18.803 -6.661,-25.717 C 7.615,45.28 1.404,40.306 -6.578,37.271 L 30.355,0 Z"
             style="fill:#000000;fill-opacity:1;fill-rule:nonzero;stroke:none"
             id="path30" />
        </g>
        <g
           id="g32"
           transform="translate(1055.3164,788.0322)">
          <path
             d="m 0,0 h 20.915 v -68.468 c 0,-9.445 -1.24,-17.681 -3.713,-24.706 -2.473,-7.029 -6.352,-12.847 -11.635,-17.456 -5.285,-4.61 -12.116,-8.039 -20.492,-10.286 -8.376,-2.249 -18.523,-3.375 -30.44,-3.375 -11.804,0 -21.895,1.126 -30.271,3.375 -8.376,2.247 -15.207,5.676 -20.49,10.286 -5.286,4.609 -9.165,10.427 -11.636,17.456 -2.474,7.025 -3.711,15.261 -3.711,24.706 V 0 h 22.092 v -68.468 c 0,-6.185 0.759,-11.469 2.277,-15.853 1.518,-4.385 3.99,-7.986 7.421,-10.794 3.427,-2.811 8.011,-4.864 13.745,-6.155 5.734,-1.294 12.817,-1.939 21.25,-1.939 8.431,0 15.514,0.645 21.249,1.939 5.734,1.291 10.314,3.344 13.745,6.155 3.426,2.808 5.901,6.409 7.419,10.794 1.518,4.384 2.275,9.668 2.275,15.853 z"
             style="fill:#000000;fill-opacity:1;fill-rule:nonzero;stroke:none"
             id="path34" />
        </g>
        <g
           id="g36"
           transform="translate(1095.624,665.4287)">
          <path
             d="m 0,0 v 21.418 h 91.91 c 5.735,0 10.146,1.46 13.237,4.386 3.093,2.921 4.639,6.8 4.639,11.634 0,5.284 -1.546,9.248 -4.639,11.891 -3.091,2.64 -7.502,3.963 -13.237,3.963 H 35.584 c -5.734,0 -10.937,0.869 -15.602,2.613 -4.667,1.741 -8.6,4.159 -11.803,7.252 -3.204,3.091 -5.68,6.774 -7.42,11.047 -1.745,4.271 -2.615,8.938 -2.615,13.997 0,4.945 0.815,9.528 2.446,13.743 1.627,4.218 4.047,7.843 7.252,10.879 3.203,3.036 7.166,5.424 11.888,7.167 4.722,1.742 10.12,2.614 16.19,2.614 h 88.033 V 101.188 H 35.92 c -4.948,0 -8.768,-1.325 -11.468,-3.964 -2.698,-2.644 -4.047,-6.325 -4.047,-11.046 0,-4.723 1.375,-8.377 4.132,-10.963 2.754,-2.587 6.493,-3.877 11.214,-3.877 H 91.91 c 12.479,0 21.951,-2.926 28.416,-8.771 6.465,-5.846 9.697,-14.729 9.697,-26.646 0,-5.173 -0.788,-9.95 -2.36,-14.334 -1.576,-4.385 -3.937,-8.18 -7.083,-11.383 C 117.432,6.998 113.467,4.496 108.691,2.698 103.912,0.898 98.318,0 91.91,0 Z"
             style="fill:#000000;fill-opacity:1;fill-rule:nonzero;stroke:none"
             id="path38" />
        </g>
        <g
           id="g40"
           transform="translate(1290.7412,665.4287)">
          <path
             d="m 0,0 v 21.418 h 78.757 c 6.745,0 12.253,1.35 16.527,4.047 4.271,2.698 6.409,6.747 6.409,12.142 0,5.06 -1.577,8.938 -4.723,11.638 -3.15,2.697 -7.756,4.047 -13.828,4.047 H 29.007 v 18.046 h 52.617 c 6.072,0 10.566,1.121 13.491,3.372 2.922,2.247 4.385,6.07 4.385,11.468 0,5.734 -1.912,9.696 -5.733,11.888 -3.824,2.194 -9.277,3.288 -16.36,3.288 H 0.506 v 21.25 h 81.118 c 5.959,0 11.355,-0.674 16.191,-2.024 4.832,-1.349 8.992,-3.346 12.479,-5.985 3.483,-2.644 6.155,-5.962 8.011,-9.95 1.854,-3.993 2.781,-8.576 2.781,-13.746 0,-7.757 -1.659,-13.688 -4.976,-17.792 -3.315,-4.105 -7.278,-6.887 -11.888,-8.347 5.621,-1.8 10.23,-5.06 13.83,-9.781 3.597,-4.723 5.397,-10.683 5.397,-17.876 0,-5.624 -0.928,-10.709 -2.784,-15.264 -1.854,-4.552 -4.498,-8.432 -7.925,-11.635 C 109.31,6.998 105.149,4.496 100.26,2.698 95.369,0.898 89.943,0 83.985,0 Z"
             style="fill:#000000;fill-opacity:1;fill-rule:nonzero;stroke:none"
             id="path42" />
        </g>
        <g
           id="g44"
           transform="translate(1504.0752,686.8467)">
          <path
             d="m 0,0 c 5.509,0 10.597,1.011 15.264,3.036 4.663,2.024 8.71,4.806 12.14,8.348 3.429,3.541 6.098,7.784 8.011,12.732 1.911,4.946 2.867,10.286 2.867,16.021 0,5.734 -0.956,11.047 -2.867,15.937 -1.913,4.891 -4.582,9.078 -8.011,12.564 -3.43,3.483 -7.477,6.211 -12.14,8.18 C 10.597,78.783 5.509,79.77 0,79.77 H -49.75 V 0 Z M -70.999,-21.418 V 101.186 H 0 c 8.657,0 16.639,-1.462 23.947,-4.383 C 31.256,93.877 37.549,89.774 42.836,84.491 48.119,79.204 52.251,72.88 55.232,65.519 58.208,58.154 59.7,50.028 59.7,41.149 59.7,32.267 58.208,24.004 55.232,16.358 52.251,8.712 48.119,2.108 42.836,-3.457 37.549,-9.021 31.256,-13.407 23.947,-16.612 16.639,-19.815 8.657,-21.418 0,-21.418 Z"
             style="fill:#000000;fill-opacity:1;fill-rule:nonzero;stroke:none"
             id="path46" />
        </g>
        <g
           id="g48"
           transform="translate(1292.3164,1265.7598)">
          <path
             d="M 0,0 -58.21,70.499 C -68.528,58.037 -78.617,45.404 -90.044,34.595 c -2.928,-2.788 -5.94,-5.439 -9.039,-7.952 -0.938,-0.723 -1.847,-1.445 -2.756,-2.134 -6.026,-4.613 -12.307,-8.743 -18.731,-12.358 -4.691,-2.582 -9.493,-4.888 -14.354,-6.953 -16.741,-7.126 -34.449,-10.913 -52.214,-11.188 -7.049,-0.138 -14.126,0.275 -21.146,1.274 -5.685,0.757 -11.313,1.927 -16.911,3.408 -7.305,1.996 -14.525,4.612 -21.574,7.813 -2.131,0.964 -4.263,1.997 -6.367,3.099 -11.653,5.955 -22.71,13.597 -32.913,22.685 -2.672,2.409 -4.69,4.165 -6.254,5.61 -1.563,-1.411 -3.58,-3.201 -6.281,-5.61 -10.232,-9.088 -21.261,-16.73 -32.914,-22.685 -2.103,-1.102 -4.234,-2.135 -6.395,-3.099 -7.02,-3.201 -14.239,-5.817 -21.544,-7.813 -5.6,-1.481 -11.256,-2.651 -16.912,-3.408 -7.021,-0.999 -14.098,-1.412 -21.147,-1.274 -17.764,0.275 -35.472,4.062 -52.213,11.188 -4.86,2.065 -9.664,4.371 -14.354,6.953 -6.424,3.615 -12.705,7.745 -18.758,12.358 -0.882,0.689 -1.792,1.411 -2.729,2.134 -3.098,2.513 -6.111,5.164 -9.039,7.952 -11.426,10.809 -21.516,23.442 -31.834,35.904 L -574.6,12.151 -584.662,0 -857.125,-329.98 c 16.998,-20.586 44.511,-20.586 61.508,0 l 240.572,291.356 10.119,12.221 19.327,23.443 c 10.659,-10.466 22,-19.415 33.881,-26.885 6.537,-4.131 13.217,-7.78 20.01,-10.981 7.503,-3.546 15.178,-6.541 22.937,-8.985 5.343,-1.721 10.8,-3.167 16.286,-4.302 15.206,-3.271 30.697,-4.51 46.074,-3.683 5.685,0.309 11.312,0.86 16.94,1.72 0.313,0.034 0.596,0.104 0.91,0.138 14.694,2.307 29.247,6.437 43.316,12.461 11.341,4.853 22.369,10.912 32.942,18.21 10.574,-7.298 21.574,-13.357 32.914,-18.21 14.07,-6.024 28.594,-10.154 43.288,-12.461 0.314,-0.034 0.625,-0.104 0.939,-0.138 5.6,-0.86 11.256,-1.411 16.911,-1.72 15.406,-0.827 30.897,0.412 46.103,3.683 5.486,1.135 10.915,2.581 16.286,4.302 7.759,2.444 15.434,5.439 22.937,8.985 6.793,3.201 13.473,6.85 20.011,10.981 11.88,7.47 23.221,16.419 33.88,26.885 l 19.327,-23.443 10.119,-12.221 240.572,-291.356 c 16.969,-20.586 44.51,-20.586 61.508,0 z"
             style="fill:#1c75bc;fill-opacity:1;fill-rule:nonzero;stroke:none"
             id="path50" />
        </g>
        <g
           id="g52"
           transform="translate(1179.3633,1164.2114)">
          <path
             d="m 0,0 c -4.206,-1.721 -8.498,-3.236 -12.818,-4.647 -0.825,-0.241 -1.621,-0.482 -2.416,-0.723 -6.652,-2.066 -13.331,-3.753 -20.067,-5.13 -4.833,-0.963 -9.664,-1.79 -14.525,-2.375 -20.492,-2.753 -41.27,-2.375 -61.706,0.999 -1.904,0.31 -3.781,0.619 -5.656,0.998 -6.538,1.205 -13.046,2.754 -19.47,4.613 -1.989,0.585 -3.979,1.204 -5.94,1.824 -10.233,3.304 -20.295,7.298 -30.129,12.151 -2.216,1.103 -4.434,2.238 -6.623,3.408 -2.188,-1.17 -4.404,-2.305 -6.65,-3.408 -9.834,-4.853 -19.896,-8.847 -30.129,-12.151 -1.961,-0.62 -3.95,-1.239 -5.94,-1.824 -6.423,-1.859 -12.932,-3.408 -19.47,-4.613 -1.876,-0.379 -3.752,-0.688 -5.656,-0.998 -20.435,-3.374 -41.213,-3.752 -61.734,-0.999 -4.832,0.585 -9.664,1.412 -14.497,2.375 -6.736,1.377 -13.444,3.064 -20.067,5.13 -0.795,0.241 -1.591,0.482 -2.415,0.723 -4.321,1.411 -8.613,2.926 -12.847,4.647 -16.031,6.368 -31.351,14.732 -46.671,23.58 L -634.97,-254.422 c 16.968,-20.551 44.482,-20.551 61.45,0 l 160.363,194.215 14.666,17.763 2.388,2.891 c 13.131,-6.643 26.661,-12.048 40.389,-16.316 4.178,-1.308 8.357,-2.479 12.563,-3.58 l -115.653,-140.068 -65.856,-79.793 c 16.968,-20.551 44.51,-20.551 61.478,0 l 35.131,42.547 10.062,12.186 0.256,-0.31 c 7.873,9.535 8.641,10.086 12.363,15.594 l 45.079,54.595 31.607,38.279 18.105,21.927 22.427,27.16 c 7.93,-0.275 15.888,-0.138 23.818,0.447 4.775,0.31 9.522,0.758 14.268,1.343 4.406,0.585 8.839,1.239 13.245,2.065 0.455,0.069 0.91,0.172 1.336,0.241 8.47,1.584 16.856,3.684 25.154,6.162 l -172.981,-209.5 -10.034,-12.185 -8.243,-9.983 c 8.101,-9.81 18.589,-14.905 29.19,-15.387 5.828,-0.242 11.682,0.929 17.196,3.511 3.923,1.825 7.646,4.337 11.057,7.608 1.393,1.307 2.757,2.754 4.008,4.268 0,0 66.083,80.034 133.019,161.204 l 2.644,3.201 c 8.498,10.258 16.883,20.413 25.098,30.396 8.214,-9.949 16.627,-20.138 25.125,-30.396 l 2.644,-3.201 c 66.936,-81.17 133.019,-161.204 133.019,-161.204 1.251,-1.514 2.615,-2.961 3.98,-4.268 h 0.029 c 3.41,-3.271 7.133,-5.783 11.056,-7.608 5.513,-2.582 11.37,-3.753 17.196,-3.511 10.601,0.482 21.09,5.577 29.19,15.387 l -191.287,231.668 c 8.299,-2.478 16.684,-4.578 25.183,-6.162 0.427,-0.069 0.881,-0.172 1.336,-0.241 4.406,-0.826 8.811,-1.48 13.217,-2.065 4.775,-0.585 9.522,-1.033 14.296,-1.343 7.93,-0.585 15.888,-0.722 23.819,-0.447 L 46.644,-209.293 c 3.721,-5.508 4.489,-6.059 12.362,-15.594 l 0.257,0.31 45.192,-54.733 c 16.969,-20.551 44.511,-20.551 61.479,0 l -65.885,79.793 -22.596,27.4 -93.028,112.668 c 4.178,1.101 8.385,2.272 12.562,3.58 13.729,4.268 27.23,9.673 40.389,16.316 l 2.359,-2.891 14.695,-17.763 160.363,-194.215 c 16.94,-20.551 44.454,-20.551 61.45,0 L 46.699,23.58 C 31.379,14.732 16.06,6.368 0,0"
             style="fill:#1c75bc;fill-opacity:1;fill-rule:nonzero;stroke:none"
             id="path54" />
        </g>
      </g>
    </g>
  </g>
</svg>
